<svg width="20" height="20" viewBox="0 0 20 20" fill="none" xmlns="http://www.w3.org/2000/svg">
<path fill-rule="evenodd" clip-rule="evenodd" d="M10 6.25C7.92893 6.25 6.25 7.92893 6.25 10C6.25 12.0711 7.92893 13.75 10 13.75C12.0711 13.75 13.75 12.0711 13.75 10C13.7478 7.92982 12.0702 6.25215 10 6.25V6.25ZM10 12.5C8.61929 12.5 7.5 11.3807 7.5 10C7.5 8.61929 8.61929 7.5 10 7.5C11.3807 7.5 12.5 8.61929 12.5 10C12.5 11.3807 11.3807 12.5 10 12.5V12.5ZM16.875 10.1687C16.8781 10.0562 16.8781 9.94375 16.875 9.83125L18.0406 8.375C18.1646 8.21994 18.2075 8.01522 18.1562 7.82344C17.9652 7.10516 17.6793 6.41551 17.3062 5.77266C17.2072 5.60208 17.0334 5.48827 16.8375 5.46562L14.9844 5.25938C14.9073 5.17813 14.8292 5.1 14.75 5.025L14.5312 3.16719C14.5084 2.97109 14.3943 2.7973 14.2234 2.69844C13.5803 2.32605 12.8907 2.0405 12.1727 1.84922C11.9807 1.7982 11.776 1.84141 11.6211 1.96563L10.1687 3.125C10.0562 3.125 9.94375 3.125 9.83125 3.125L8.375 1.96172C8.21994 1.83777 8.01522 1.79486 7.82344 1.84609C7.10527 2.03752 6.41567 2.32335 5.77266 2.69609C5.60208 2.79514 5.48827 2.9689 5.46562 3.16484L5.25938 5.02109C5.17813 5.0987 5.1 5.17682 5.025 5.25547L3.16719 5.46875C2.97109 5.49156 2.7973 5.60569 2.69844 5.77656C2.32605 6.41966 2.0405 7.10925 1.84922 7.82734C1.7982 8.01925 1.84141 8.22398 1.96563 8.37891L3.125 9.83125C3.125 9.94375 3.125 10.0562 3.125 10.1687L1.96172 11.625C1.83777 11.7801 1.79486 11.9848 1.84609 12.1766C2.03718 12.8948 2.32302 13.5845 2.69609 14.2273C2.79514 14.3979 2.9689 14.5117 3.16484 14.5344L5.01797 14.7406C5.09557 14.8219 5.1737 14.9 5.25234 14.975L5.46875 16.8328C5.49156 17.0289 5.60569 17.2027 5.77656 17.3016C6.41966 17.6739 7.10925 17.9595 7.82734 18.1508C8.01925 18.2018 8.22398 18.1586 8.37891 18.0344L9.83125 16.875C9.94375 16.8781 10.0562 16.8781 10.1687 16.875L11.625 18.0406C11.7801 18.1646 11.9848 18.2075 12.1766 18.1562C12.8948 17.9652 13.5845 17.6793 14.2273 17.3062C14.3979 17.2072 14.5117 17.0334 14.5344 16.8375L14.7406 14.9844C14.8219 14.9073 14.9 14.8292 14.975 14.75L16.8328 14.5312C17.0289 14.5084 17.2027 14.3943 17.3016 14.2234C17.6739 13.5803 17.9595 12.8907 18.1508 12.1727C18.2018 11.9807 18.1586 11.776 18.0344 11.6211L16.875 10.1687ZM15.6172 9.66094C15.6305 9.88678 15.6305 10.1132 15.6172 10.3391C15.6079 10.4937 15.6563 10.6463 15.7531 10.7672L16.8617 12.1523C16.7345 12.5566 16.5716 12.9488 16.375 13.3242L14.6094 13.5242C14.4556 13.5413 14.3136 13.6148 14.2109 13.7305C14.0606 13.8996 13.9004 14.0598 13.7312 14.2102C13.6156 14.3129 13.5421 14.4548 13.525 14.6086L13.3289 16.3727C12.9535 16.5694 12.5613 16.7323 12.157 16.8594L10.7711 15.7508C10.6602 15.6622 10.5224 15.614 10.3805 15.6141H10.343C10.1171 15.6273 9.89069 15.6273 9.66484 15.6141C9.51022 15.6048 9.35765 15.6532 9.23672 15.75L7.84766 16.8594C7.44339 16.7322 7.05122 16.5693 6.67578 16.3727L6.47578 14.6094C6.45871 14.4556 6.38522 14.3136 6.26953 14.2109C6.1004 14.0606 5.94023 13.9004 5.78984 13.7312C5.68713 13.6156 5.54517 13.5421 5.39141 13.525L3.62734 13.3281C3.43062 12.9527 3.26773 12.5606 3.14062 12.1562L4.24922 10.7703C4.34602 10.6494 4.39446 10.4968 4.38516 10.3422C4.37188 10.1163 4.37188 9.88991 4.38516 9.66406C4.39446 9.50944 4.34602 9.35687 4.24922 9.23594L3.14062 7.84766C3.26783 7.44339 3.43071 7.05122 3.62734 6.67578L5.39062 6.47578C5.54439 6.45871 5.68635 6.38522 5.78906 6.26953C5.93945 6.1004 6.09962 5.94023 6.26875 5.78984C6.3849 5.68707 6.45869 5.54478 6.47578 5.39062L6.67188 3.62734C7.04727 3.43062 7.43944 3.26773 7.84375 3.14062L9.22969 4.24922C9.35062 4.34602 9.50319 4.39446 9.65781 4.38516C9.88366 4.37188 10.1101 4.37188 10.3359 4.38516C10.4906 4.39446 10.6431 4.34602 10.7641 4.24922L12.1523 3.14062C12.5566 3.26783 12.9488 3.43071 13.3242 3.62734L13.5242 5.39062C13.5413 5.54439 13.6148 5.68635 13.7305 5.78906C13.8996 5.93945 14.0598 6.09962 14.2102 6.26875C14.3129 6.38444 14.4548 6.45793 14.6086 6.475L16.3727 6.67109C16.5694 7.04649 16.7323 7.43866 16.8594 7.84297L15.7508 9.22891C15.653 9.35086 15.6045 9.505 15.6148 9.66094H15.6172Z" fill="#0D171C"/>
</svg>
